<svg xmlns="http://www.w3.org/2000/svg" width="729" height="124" viewBox="0 0 729 124">
    <g fill="none" fill-rule="evenodd">
        <g fill-rule="nonzero">
            <g>
                <path fill="#212126" d="M276.38 0H729c0 .52-.074 1.042-.074 1.637 0 33.34-.075 66.68-.075 100.021v19.945c0 1.712 0 1.563-1.638 1.563H278.39c-.67 0-1.266-.075-1.936-.075v-22.177c0-1.488-.075-1.414 1.414-1.414h16.309c.447 0 .596-.223.521-.595v-.67-21.359c0-1.265.075-1.265-1.191-1.265h-15.192c-1.936 0-1.936 0-1.936-1.86V1.935c.075-.744.075-1.34 0-1.935zM240.281 0c.22.675-.367.975-.66 1.35-4.26 5.621-8.518 11.169-12.777 16.716-8.518 11.169-16.962 22.338-25.48 33.433-.367.524-.808 1.05-1.248 1.574-.588-.45-.44-1.125-.44-1.65-.295-3.672-.882-7.27-1.616-10.869-1.102-4.947-2.57-9.82-4.626-14.467-2.277-5.173-5.14-9.97-8.738-14.318-3.672-4.273-7.857-8.02-12.704-10.944-.293-.15-.88-.225-.734-.825h69.023zM47.016 0c.22.669-.366.966-.66 1.338-4.18 5.5-8.362 11-12.616 16.5-10.855 14.121-21.638 28.169-32.493 42.29-.293.372-.44 1.19-1.247.892V0h47.016zM0 99.209c.52 0 .966-.073 1.486-.073h53.66c1.784 0 1.784 0 1.784 1.822v17.42c0 1.239.074 2.478.148 3.644-.594 0-1.189.073-1.783.073H1.784c-.595 0-1.19.073-1.784.073v-22.96zM119.163 0c-.076.222-.152.518-.38.592-4.184 2.294-7.836 5.105-11.108 8.435-3.347 3.33-6.086 6.956-8.52 10.951-4.033 6.734-6.62 13.985-8.217 21.606-.685 3.404-1.217 6.955-1.522 10.433-.304 3.996-.38 7.991-.304 11.987.076 3.256.609 6.437.913 9.693.076.444.076.814.152 1.406h-7.38c-.38 0-.608-.148-.608-.592V73.18 1.776c0-.592-.076-1.184-.076-1.776h37.05z" transform="translate(-41 -156) translate(41 156)"/>
                <path fill="#7F7F81" d="M277.38 122.668c-.448.1-.822.2-1.271.2h-23.492c-.45 0-.823-.1-1.272-.2.374-.1.748-.2 1.122-.2h24.165c.225.1.45.1.748.2z" transform="translate(-41 -156) translate(41 156)"/>
                <path fill="#212126" d="M173.238 60.238c-.15 8.162-1.495 15.804-4.708 23.15-1.794 4.155-4.185 7.939-7.473 11.13-4.26 4.154-9.416 6.38-15.394 6.603-8.295.297-14.797-3.116-19.878-9.423-3.512-4.378-5.68-9.349-7.249-14.617-1.793-6.158-2.615-12.391-2.317-18.772.374-8.384 2.168-16.398 6.203-23.817 2.69-4.897 6.202-9.052 11.21-11.724 5.006-2.67 10.312-3.338 15.842-2.225 6.8 1.41 11.807 5.342 15.618 10.98 3.512 5.195 5.53 10.982 6.875 17.066.822 3.858 1.121 7.865 1.27 11.65zM250.343 122.094c-.513 0-.953.074-1.467.074H167.303c0-.147-.074-.366-.074-.512 4.255-1.901 8.143-4.24 11.664-7.239 3.521-3.07 6.676-6.507 9.317-10.382.953-1.389 1.907-2.851 2.787-4.314.294-.438.514-.584 1.027-.584h56.632c1.614 0 1.467-.074 1.467 1.462v17.035c.074 1.463.147 2.998.22 4.46zM19.026 75.092C31.71 58.95 44.245 43.03 56.78 27.037c.074 0 .224.074.298.074v47.314c0 .445-.149.74-.671.667H19.026zM213.293 75.1c12.68-16.12 25.212-32.091 37.744-48.063.074.074.224.074.298.148V73.694c0 1.553.224 1.405-1.492 1.405h-36.55zM123.095 123.169H84.76c-.52 0-1.04-.075-1.635-.075v-22.451-.528c-.074-.678.223-.979.892-.979h13.67c.817 0 1.263.226 1.634.98 2.006 3.842 4.532 7.383 7.43 10.622 4.085 4.52 8.84 8.287 14.338 10.924.668.302 1.337.678 2.08.98-.074.15-.074.376-.074.527z" transform="translate(-41 -156) translate(41 156)"/>
                <path fill="#7F7F81" d="M124.17 123.005c0-.2 0-.501.074-.701.888.2 1.776.4 2.664.4h37.584c.888 0 1.776-.3 2.663-.5 0 .2.074.5.074.7-.887 0-1.701.1-2.59.1-13.242 0-26.412 0-39.655.1-.296.101-.592-.1-.814-.1zM83.114 122.618c-.448.1-.82.2-1.268.2h-23.5c-.447 0-.82-.1-1.268-.2.373 0 .746-.1 1.12-.1H82.07c.447 0 .746 0 1.044.1z" transform="translate(-41 -156) translate(41 156)"/>
            </g>
        </g>
    </g>
</svg>
