<svg xmlns="http://www.w3.org/2000/svg" width="36" height="36" viewBox="0 0 36 36">
    <g fill="none" fill-rule="evenodd">
        <g>
            <g>
                <g fill="#2E81B7" transform="translate(-1401 -153) translate(1401 153)">
                    <ellipse cx="17.64" cy="17.465" rx="17.64" ry="17.465"/>
                    <path d="M17.638 34.997C7.913 34.997 0 27.162 0 17.531 0 7.901 7.913.065 17.638.065c9.725 0 17.637 7.836 17.637 17.466 0 9.631-7.912 17.466-17.637 17.466zm0-33.872C8.503 1.125 1.07 8.485 1.07 17.53c0 9.051 7.433 16.413 16.568 16.413 9.14 0 16.573-7.362 16.573-16.413 0-9.046-7.433-16.406-16.573-16.406z"/>
                </g>
                <path fill="#FFF" d="M18.097 36c-3.55 0-6.967-1.129-9.876-3.273-.157-.115-.242-.313-.216-.507.024-.199.156-.366.332-.434 4.29-1.643 4.982-2.976 4.982-5.533 0-.68-.146-.9-.409-1.301-.354-.529-.834-1.256-1.168-3.149-.05-.271-.095-.293-.328-.408-.626-.313-1.202-.763-1.354-2.818 0-.993.328-1.543.606-1.825-.06-.356-.161-.967-.252-1.631-.47-2.971-.49-6.616 3.551-8.31 3.522-1.475 6.335-.669 7.22.294.62.02 2.232.192 3.354 1.542 1.728 2.076 1.177 6.814.99 8.095.273.282.606.826.606 1.798-.146 2.092-.723 2.542-1.354 2.855-.231.115-.278.137-.328.408-.334 1.893-.814 2.62-1.167 3.149-.262.401-.408.621-.408 1.301 0 2.557.691 3.89 4.98 5.533.182.068.308.235.334.434.024.199-.056.392-.212.507C25.07 34.87 21.654 36 18.097 36zM9.63 32.419c2.552 1.647 5.457 2.515 8.467 2.515 3.011 0 5.921-.868 8.468-2.515-3.592-1.533-4.723-3.07-4.723-6.166 0-1.01.287-1.443.596-1.904.313-.475.702-1.066 1-2.74.146-.804.596-1.03.898-1.18.32-.159.652-.326.769-1.93 0-.822-.359-1.041-.369-1.052-.191-.11-.313-.35-.273-.575.252-1.422.678-5.863-.707-7.53-.944-1.134-2.436-1.167-2.718-1.156-.045-.005-.091-.005-.137-.016-.135-.036-.363-.157-.434-.282-.278-.497-2.728-1.501-6.112-.083-3.345 1.401-3.35 4.403-2.915 7.154.14 1.024.297 1.913.297 1.913.04.246-.075.481-.292.586.005 0-.35.225-.35 1.078.117 1.567.445 1.73.769 1.892.297.146.752.371.893 1.181.3 1.67.692 2.26 1.007 2.735.307.46.59.9.59 1.904 0 3.101-1.126 4.644-4.724 6.171z" transform="translate(-1401 -153) translate(1401 153)"/>
            </g>
        </g>
    </g>
</svg>
