<svg xmlns="http://www.w3.org/2000/svg" width="31" height="30" viewBox="0 0 31 30">
    <g fill="none" fill-rule="evenodd">
        <g fill="#9B9B9B">
            <g>
                <path d="M206.74 30h-20.624c-2.589 0-4.688-2.099-4.688-4.688V4.688c0-2.588 2.099-4.687 4.688-4.687h20.625c2.588 0 4.687 2.099 4.687 4.688v20.625c0 2.588-2.099 4.687-4.687 4.687zm-10.312-20c-2.761 0-5 2.239-5 5s2.239 5 5 5 5-2.239 5-5-2.239-5-5-5zm11.25-4.375c0-1.035-.84-1.875-1.875-1.875h-1.25c-1.035 0-1.875.84-1.875 1.875v1.25c0 1.035.84 1.875 1.875 1.875h1.25c1.035 0 1.875-.84 1.875-1.875v-1.25zm0 6.875h-2.906c.239.797.406 1.625.406 2.5 0 4.832-3.917 8.75-8.75 8.75-4.832 0-8.75-3.918-8.75-8.75 0-.875.168-1.703.406-2.5h-2.906v11.876c0 1.035.84 1.874 1.875 1.874h18.75c1.035 0 1.875-.839 1.875-1.874V12.5z" transform="translate(-798 -21) translate(0 1) translate(617 20)"/>
            </g>
        </g>
    </g>
</svg>
