<svg xmlns="http://www.w3.org/2000/svg" width="37" height="30" viewBox="0 0 37 30">
    <g fill="none" fill-rule="evenodd">
        <g fill="#9B9B9B">
            <g>
                <path d="M84.127 7.472c.013.324.018.65.018.98C84.145 18.458 76.716 30 63.132 30c-4.172 0-8.053-1.252-11.322-3.405.578.072 1.165.105 1.76.105 3.46 0 6.647-1.208 9.175-3.243-3.232-.055-5.96-2.247-6.902-5.256.452.09.918.138 1.393.138.671 0 1.323-.095 1.947-.267-3.382-.697-5.929-3.759-5.929-7.424v-.096c.997.563 2.138.907 3.349.946-1.984-1.362-3.289-3.678-3.289-6.303 0-1.39.363-2.688 1.003-3.81 3.641 4.584 9.085 7.596 15.223 7.916-.126-.554-.19-1.138-.19-1.728C69.35 3.39 72.655 0 76.735 0c2.124 0 4.042.92 5.388 2.391 1.686-.339 3.265-.968 4.694-1.836-.554 1.764-1.723 3.25-3.251 4.186 1.495-.177 2.92-.587 4.243-1.19-.992 1.52-2.24 2.85-3.683 3.921z" transform="translate(-668 -21) translate(0 1) translate(617 20)"/>
            </g>
        </g>
    </g>
</svg>
