<svg id="Layer_1" data-name="Layer 1" xmlns="http://www.w3.org/2000/svg" viewBox="0 0 500 91.02"><title>logo_ddn_tag_Site</title><path d="M189.2,50.15c-2.68,0-5.24-.24-7.92-.24s-5.36.24-8,.24V48.08l1.47-.12c1.94-.24,2.31-1.46,2.31-3.9V27c0-3.05-1.22-5.73-4.75-5.73a7.23,7.23,0,0,0-4.39,1.95,4.28,4.28,0,0,0-1.7,3.41V44.06c0,2.44.48,3.66,2.31,3.9l1.46.12v2.07c-2.68,0-5.24-.24-7.92-.24s-5.36.24-8,.24V48.08l1.47-.12c1.95-.24,2.31-1.46,2.31-3.9V24.81c0-2.07-.24-3-1.71-3.17l-2.43-.24V19.57l12.55-3.77.36.73a7.24,7.24,0,0,0-.61,2.68v2.31h.13c1.21-1,1.94-1.46,3.53-2.68a10.93,10.93,0,0,1,6.58-2.68c5.72,0,8.89,3.9,8.89,9.51V43.82c0,2.43.49,3.65,2.32,3.9l1.46.12.36,2.31Z" transform="translate(0 -0.32)"/><path d="M124.39,46.62c-3.41,2.92-6,4.14-10.24,4.14-5.48,0-7.67-2.68-7.67-8.16V18.72h-2.56c-1.46,0-2.07.61-3.53,4.26L86.26,57.46c-1.83,4.51-4.63,6.22-7.68,6.22s-5.12-1.71-5.12-4a4,4,0,0,1,3.9-4h.25c2.31,0,3.41,2.31,4.5,2.31.73,0,1.1-.61,1.59-1.58L86,50.64l-11-27.9c-1.1-2.92-2-3.65-3.17-3.9l-1.46-.24V16.53c3,0,6,.24,8.89.24s5.48-.24,8.29-.24V18.6l-1.47.24c-1.46.25-2.31.73-2.31,2.2a4.37,4.37,0,0,0,.36,1.7L90.4,39.8,97,23.35A7.2,7.2,0,0,0,97.46,21c0-1.47-.61-2.08-2.19-2.32l-1.46-.12V16.53c2.19,0,3.65.24,6,.24,1,0,2.07-.12,3-.12l11.7-9.87.61.73a6.59,6.59,0,0,0-.73,3.05v6h8.65L122,19.94h0a14.14,14.14,0,0,0-4.51-.49h-3V41.87c0,3,1.34,4.26,3.41,4.26a12.73,12.73,0,0,0,5.85-1.82l.73,2.31Z" transform="translate(0 -0.32)"/><path d="M153.14,33.34c0,10.48-6,17.54-15.35,17.54-8.77,0-15.11-7.06-15.11-17.42S129,15.92,137.91,15.92c8.65,0,15.23,6.58,15.23,17.42Zm-8.65.24c0-8.16-2-15.22-6.46-15.22s-6.45,7.06-6.45,14.74c0,8.77,2.43,15.47,6.45,15.47s6.46-6.94,6.46-15Z" transform="translate(0 -0.32)"/><path d="M73.83,50.15c-2.93,0-8.16.25-11,.49a32.5,32.5,0,0,1-.73-4.75h0a33.74,33.74,0,0,1-3.65,2.56,12.65,12.65,0,0,1-7.43,2.43c-4.15,0-6.95-2.92-6.95-7.31,0-4.14,3-6.94,9.5-10.35l8-4.27V27.49c0-4.26-2.44-6.7-6.46-6.7-3,0-4.63.73-7.31,2.19l-1-2.43C50.68,17.62,54.09,16,57.38,16c7.31,0,12.43,2.68,12.43,11.45V44.67c0,1.95.61,3.17,2.19,3.29l1.71.12.12,2.07ZM61.65,40.77V32.12l-4.15,2.2c-2.92,1.58-4.87,3.53-4.87,7.67,0,2.32,1.22,4,3.53,4a5.4,5.4,0,0,0,4-1.83,3.63,3.63,0,0,0,1.47-3.41Z" transform="translate(0 -0.32)"/><path d="M43.86,26.4C43.86,41.26,36.06,50,20.71,50c-3.17,0-7.68-.24-11.21-.24-2.92,0-6.09.24-9,.24V47.84h1c3.05-.25,3.9-.85,3.9-4.39V9.71c0-2.32-.85-3.42-2.68-3.66L0,5.93V3.74C3.53,3.74,8.16,4,10,4c5,0,3.17-.24,9.75-.24,15.1,0,24.12,7.18,24.12,22.66ZM34,27C34,11.53,28.14,6.17,20.71,6.17a32.27,32.27,0,0,0-5.85.61V44.67c0,2.19.73,2.92,3.05,2.92h4C28.51,47.59,34,39.43,34,27Z" transform="translate(0 -0.32)"/><path d="M348.44,18.48l-1.22.12c-1.46.12-2.07.73-3.53,4.38L329.55,57.46c-1.82,4.39-4.63,6.22-7.55,6.22-3.17,0-5.12-1.71-5.12-4a4,4,0,0,1,3.9-4H321c2.44,0,3.42,2.31,4.51,2.31.73,0,1.1-.61,1.59-1.58l2.31-5.73-11-27.9c-1.1-2.92-2-3.65-3.17-3.9l-1.46-.24V16.53c3,0,6,.24,8.89.24s5.6-.24,8.41-.24V18.6l-1.47.24c-1.46.25-2.31.73-2.31,2.2a4.21,4.21,0,0,0,.37,1.7l6.21,17.06,6.46-16.45a7.2,7.2,0,0,0,.48-2.31c0-1.47-.61-2.08-2.19-2.32l-1.46-.12V16.53c2.19,0,3.65.24,5.85.24,1,0,3.41-.24,5.11-.24l.25,1.95Z" transform="translate(0 -0.32)"/><path d="M295.56,6.9A4.87,4.87,0,1,1,290.69,2h0a4.88,4.88,0,0,1,4.87,4.87Z" transform="translate(0 -0.32)"/><path d="M315.42,50.15c-2.68,0-5.24-.24-7.92-.24s-5.36.24-8,.24V48.08l1.46-.12c1.95-.24,2.32-1.46,2.32-3.9V9.34c0-2.07-.25-3-1.71-3.17l-2.43-.12V4.22L311.89.32l.36.74a10.55,10.55,0,0,0-.61,3.28V44.06c0,2.44.49,3.66,2.32,3.9l1.46.12v2.07Z" transform="translate(0 -0.32)"/><path d="M298.36,50.15c-2.68,0-5.23-.24-7.91-.24s-5.37.24-8.05.24V48.08l1.47-.12c1.95-.24,2.31-1.46,2.31-3.9V24.93c0-2.07-.24-3-1.7-3.16L282,21.64V19.82l12.67-3.9.36.85a7.32,7.32,0,0,0-.6,3.29V44.18c0,2.44.48,3.66,2.31,3.9l1.46.12v1.95Z" transform="translate(0 -0.32)"/><path d="M281.43,50.15c-2.92,0-8.16.25-11,.49a33.91,33.91,0,0,1-.73-4.75h-.12a23.47,23.47,0,0,1-3.53,2.56,12.63,12.63,0,0,1-7.43,2.43c-4.15,0-6.95-2.92-6.95-7.31,0-4.14,3.05-6.94,9.51-10.35L269.37,29V27.49c0-4.26-2.44-6.7-6.46-6.7-3,0-4.63.73-7.31,2.19l-1-2.43C258.4,17.62,261.81,16,265.1,16c7.31,0,12.43,2.68,12.43,11.45V44.67c0,1.95.61,3.17,2.19,3.29l1.71.12v2.07Zm-12.06-9.38V32.12l-4.14,2.2c-2.93,1.58-4.88,3.53-4.88,7.67,0,2.32,1.22,4,3.54,4a5.44,5.44,0,0,0,4-1.83,3.64,3.64,0,0,0,1.46-3.41Z" transform="translate(0 -0.32)"/><path d="M251.58,26.4c0,14.86-7.8,23.63-23.15,23.63-3.16,0-7.67-.24-11.21-.24-2.92,0-6.09.24-9,.24V47.84l1.1-.12c3-.25,4-.86,4-4.39V9.71c0-2.32-.86-3.42-2.68-3.66l-2.81-.24V3.74c3.54,0,8.17.24,10,.24,5,0,3.17-.24,9.75-.24,15,0,23.88,7.18,24,22.66Zm-9.87.61c0-15.6-5.85-20.84-13.28-20.84a32.07,32.07,0,0,0-5.84.61V44.67c0,2.19.73,2.92,3,2.92h4c6.46,0,12.06-8.16,12.06-20.58Z" transform="translate(0 -0.32)"/><path d="M500,40.53c0,6.21-5.49,10.35-13.16,10.35-5.61,0-8.41-1.09-10-1.09-.37,0-.86.12-1.1.12v-11h1.95l.49,1.83c1.22,5,4.75,7.68,8.4,7.68,3.42,0,5.73-1.59,5.73-4.88,0-3-1.1-5.11-6.82-8.16l-2.07-1.09c-3.54-1.83-7.44-4.88-7.44-9.75s4-9,13.41-9c2.92,0,5.36.73,7.55.73h1v8.9h-2.19l-.24-1.83a6.18,6.18,0,0,0-6.22-5.24c-3,0-5.36,1.46-5.36,4.27s2.68,4.5,6,6.33l2.56,1.46c3.9,2.07,7.68,5.24,7.56,10.36Z" transform="translate(0 -0.32)"/><path d="M476.48,18.48l-1.34.12c-1.46.24-2.43,1-3.41,4.26L464.3,47.11a15,15,0,0,0-.73,3.41h-5.48l-6-20.35H452l-5.23,17.18a9.07,9.07,0,0,0-.61,3.17h-5.61l-8.16-28c-1-3.41-2.19-3.66-3.41-3.9l-1.46-.24V16.28c2.8,0,6,.25,8.77.25s5.11-.25,7.79-.25v2.08l-1.09.12c-1.34.24-2.07.85-2.07,2.19a8.39,8.39,0,0,0,.24,1.71L446,39.43h.13l4.26-14.62-.73-2.56c-1-3.41-2.19-3.77-3.29-3.89l-1.1-.13V16.28c2.68,0,5.61.25,8.17.25s5.36-.25,8.16-.25v2.08l-1.22.12c-1.34.24-2.07.85-2.07,2.07a5,5,0,0,0,.36,1.83l4.88,17.05h.12l5-16.45a6,6,0,0,0,.37-2.07c0-1.46-.61-2.07-2.07-2.31l-1.46-.24V16.28c2.07,0,3.77.25,6,.25,1.7,0,3.29-.25,5-.25v2.2Z" transform="translate(0 -0.32)"/><path d="M402.29,5.93l-2.2.36c-1.7.37-2.92,1.34-2.92,4.76V46.74a21.87,21.87,0,0,0,.37,4h-4.63L370.61,14h-.12V42.84c0,3.29,1.22,4.39,3,4.75L376,48v2.19c-2.56,0-5-.24-7.55-.24-2.2,0-4.39.24-6.58.24V47.84l2.07-.37c1.83-.24,3-1.46,3-4.75V10.07a3.51,3.51,0,0,0-3.42-3.78l-1.7-.24V3.86c2.31,0,6.33.24,8.65.24,1.95,0,4-.12,5.36-.24A15.06,15.06,0,0,0,377.43,7l16.08,26.69h.13V11.05c0-3.29-1.22-4.39-3.05-4.76l-2.07-.36V3.74c2.44,0,4.75.24,7.19.24,2.07,0,4.51-.24,6.58-.24V5.93Z" transform="translate(0 -0.32)"/><path d="M429.58,30.78v1.1h-20c0,10.6,3.65,14.37,8.77,14.37,4,0,6.33-1.46,9.38-3.53l.85,2.56c-3.65,3.65-7.31,5.48-11.45,5.48-10.11,0-16.2-7.19-16.2-17.3,0-11.69,7.31-17.66,15.47-17.66,6.94,0,13.16,4.63,13.16,15Zm-8.29-1.46v-.73c0-6-2.07-10.36-5.72-10.36-4,0-6.1,5.73-6.1,11.09Z" transform="translate(0 -0.32)"/><path d="M45.84,87.15V69.5h4.07V83.63h8.46v3.52Z" transform="translate(0 -0.32)"/><path d="M59.25,80.36c0-4.28,2.81-7,7-7s7,2.74,7,7-2.78,7-7,7S59.25,84.67,59.25,80.36Zm10.16.1c0-2.14-1.07-3.55-3.12-3.55s-3.09,1.41-3.09,3.55,1.07,3.6,3.09,3.6S69.41,82.6,69.41,80.46Z" transform="translate(0 -0.32)"/><path d="M75,80.36c0-3.73,2.29-7,6.88-7a6.42,6.42,0,0,1,5.79,2.79L84.8,78.39a3.43,3.43,0,0,0-3-1.48c-1.8,0-2.88,1.41-2.88,3.55s1,3.6,3,3.6c1.47,0,2.35-.62,3.38-2l2.66,1.88a6.9,6.9,0,0,1-6.26,3.45C77,87.36,75,84.2,75,80.36Z" transform="translate(0 -0.32)"/><path d="M97.75,79c0-1.33-.36-2.12-2-2.12a11.21,11.21,0,0,0-4.22.81l-1.19-3.21a13.24,13.24,0,0,1,5.84-1.22c3.62,0,5.38,1.45,5.38,5.29v5.81h1.55V87a9.52,9.52,0,0,1-2.46.4c-1.52,0-2.36-.28-2.64-1.83l-.12-.71c-.6,1.33-2.1,2.54-4.81,2.54a3.93,3.93,0,0,1-4.22-4.14c0-2.74,2.22-4.4,5.65-4.4a13.19,13.19,0,0,1,3.24.4Zm0,2.5a9.89,9.89,0,0,0-1.91-.21c-1.81,0-3.24.38-3.24,1.47,0,.93.6,1.41,2,1.41,2,0,3.17-.93,3.17-2.36Z" transform="translate(0 -0.32)"/><path d="M105.08,87.15V68.67H109V87.15Z" transform="translate(0 -0.32)"/><path d="M111.87,87.15V82.72h4.52v4.43Z" transform="translate(0 -0.32)"/><path d="M124.29,87.15V69.5h4.08V87.15Z" transform="translate(0 -0.32)"/><path d="M131.87,87.15V73.81l2.95-.26.62,2.36a5.05,5.05,0,0,1,4.81-2.57c3.36,0,4.62,2.07,4.62,5.43v8.38H141V79.74C141,78,140.41,77,138.7,77c-2.14,0-2.93,1.14-2.93,2.85v7.29Z" transform="translate(0 -0.32)"/><path d="M147.1,81V77.55h8.27V81Z" transform="translate(0 -0.32)"/><path d="M158,87.15V69.5h6.26c5.07,0,9.65,1.77,9.65,8.82s-4.88,8.83-10,8.83Zm4.07-3.55h2.29c3.52,0,5.4-1.45,5.4-5.28s-1.81-5.15-5.66-5.15h-2Z" transform="translate(0 -0.32)"/><path d="M179.61,81.89a2.69,2.69,0,0,0,2.88,2.31,6.6,6.6,0,0,0,4.4-1.53l1.76,2.46a9.43,9.43,0,0,1-6.57,2.28c-4.64,0-6.43-3.21-6.43-7s2.19-7,7-7c5.28,0,6.09,4,5.88,8.55Zm5.31-2.84c0-1.66-.81-2.38-2.31-2.38a2.74,2.74,0,0,0-3,2.38Z" transform="translate(0 -0.32)"/><path d="M191.11,91.08V73.81l2.95-.26L194.7,76a5.31,5.31,0,0,1,5-2.69c3.72,0,5.38,3.29,5.38,7s-1.81,7-5.66,7A4.74,4.74,0,0,1,195,85.15v5.93Zm10-10.57c0-2.08-.79-3.6-2.74-3.6a3.26,3.26,0,0,0-3.36,3.6c0,2.19,1.22,3.55,3.36,3.55C200.27,84.06,201.11,82.58,201.11,80.51Z" transform="translate(0 -0.32)"/><path d="M208.49,77h-2.62V73.65h2.83l.67-3.17,3-.69v3.86h4.21V77h-4.21V82.1c0,1.38.19,1.74,1.31,1.74a7.18,7.18,0,0,0,2.59-.52l1,3a11.79,11.79,0,0,1-5,1c-2.95,0-3.9-1.69-3.9-4.31Z" transform="translate(0 -0.32)"/><path d="M219.37,87.15V68.67h3.88v6.88a5,5,0,0,1,4.5-2.21c3.36,0,4.62,2.07,4.62,5.43v8.38h-3.9V79.74c0-1.76-.55-2.73-2.27-2.73-2.14,0-2.93,1.14-2.93,2.85v7.29Z" transform="translate(0 -0.32)"/><path d="M235,87.15V82.72h4.53v4.43Z" transform="translate(0 -0.32)"/><path d="M250.27,84.36l-1.09,2.79h-3.91l7-17.76h3.95l7.05,17.76h-4.14l-1.07-2.79ZM256.78,81l-2.6-6.71L251.58,81Z" transform="translate(0 -0.32)"/><path d="M265.25,87.15V68.67h3.91V87.15Z" transform="translate(0 -0.32)"/><path d="M275.46,87.29l-4.4-13.64h4l2.43,8.26,2.5-8.26h3.64l2.53,8.26,2.4-8.26h3.67l-4.38,13.64h-3.57l-2.62-8.38L279,87.29Z" transform="translate(0 -0.32)"/><path d="M301.35,79c0-1.33-.36-2.12-2-2.12a11.21,11.21,0,0,0-4.22.81l-1.19-3.21a13.22,13.22,0,0,1,5.83-1.22c3.63,0,5.39,1.45,5.39,5.29v5.81h1.55V87a9.52,9.52,0,0,1-2.46.4c-1.52,0-2.36-.28-2.64-1.83l-.12-.71c-.6,1.33-2.1,2.54-4.81,2.54a3.93,3.93,0,0,1-4.22-4.14c0-2.74,2.22-4.4,5.65-4.4a13.25,13.25,0,0,1,3.24.4Zm0,2.5a10,10,0,0,0-1.91-.21c-1.81,0-3.24.38-3.24,1.47,0,.93.6,1.41,2,1.41,2,0,3.17-.93,3.17-2.36Z" transform="translate(0 -0.32)"/><path d="M306.82,73.65h4.1l3,8.64,2.93-8.64h3.88l-5.39,14.43c-.88,2.38-2.12,3.26-4.66,3.26a12.62,12.62,0,0,1-3.77-.64l.89-3.07a8.94,8.94,0,0,0,2.4.4c.86,0,1.33-.17,1.67-.86Z" transform="translate(0 -0.32)"/><path d="M320.47,85.34l2.09-2.64a7.38,7.38,0,0,0,4.72,1.55c1.21,0,2-.24,2-1s-.86-1-2.76-1.21c-2.33-.29-5.34-.84-5.34-4.34,0-2.85,2.46-4.33,5.41-4.33a11.33,11.33,0,0,1,5.86,1.31L331,77.74a9.05,9.05,0,0,0-4.21-1c-1,0-1.67.21-1.67.88,0,.88.79,1,2.45,1.22,2.36.31,5.58.69,5.58,4.14,0,3.12-2.77,4.43-6.08,4.43A9.85,9.85,0,0,1,320.47,85.34Z" transform="translate(0 -0.32)"/><path d="M340.25,81.94V73.65h3.91v7.62c0,1.76.52,2.74,2.24,2.74,2.14,0,2.85-1.15,2.85-2.84V73.65h3.93V87l-2.95.29-.62-2.41c-.76,1.62-2.67,2.5-4.79,2.5C341.3,87.36,340.25,85.32,340.25,81.94Z" transform="translate(0 -0.32)"/><path d="M356.09,91.08V73.81l3-.26.64,2.48a5.31,5.31,0,0,1,5-2.69c3.72,0,5.38,3.29,5.38,7s-1.81,7-5.66,7A4.74,4.74,0,0,1,360,85.15v5.93Zm10-10.57c0-2.08-.79-3.6-2.74-3.6a3.26,3.26,0,0,0-3.36,3.6c0,2.19,1.22,3.55,3.36,3.55C365.25,84.06,366.09,82.58,366.09,80.51Z" transform="translate(0 -0.32)"/><path d="M371.68,80.34c0-3.74,1.81-7,5.64-7a4.83,4.83,0,0,1,4.41,2.21V68.67h3.91V87l-2.93.28-.65-2.59a5.31,5.31,0,0,1-5,2.66C373.35,87.36,371.68,84.08,371.68,80.34Zm10.05,0c0-2.19-1.19-3.48-3.33-3.48-1.93,0-2.74,1.43-2.74,3.48S376.44,84,378.4,84,381.73,82.55,381.73,80.34Z" transform="translate(0 -0.32)"/><path d="M396.59,79c0-1.33-.36-2.12-2-2.12a11.21,11.21,0,0,0-4.22.81l-1.19-3.21A13.24,13.24,0,0,1,395,73.29c3.62,0,5.38,1.45,5.38,5.29v5.81H402V87a9.52,9.52,0,0,1-2.46.4c-1.52,0-2.35-.28-2.64-1.83l-.12-.71c-.59,1.33-2.09,2.54-4.81,2.54a3.92,3.92,0,0,1-4.21-4.14c0-2.74,2.21-4.4,5.64-4.4a13.19,13.19,0,0,1,3.24.4Zm0,2.5a9.89,9.89,0,0,0-1.91-.21c-1.81,0-3.24.38-3.24,1.47,0,.93.6,1.41,2,1.41,2,0,3.17-.93,3.17-2.36Z" transform="translate(0 -0.32)"/><path d="M405,77h-2.62V73.65h2.83l.67-3.17,3.05-.69v3.86h4.21V77H409V82.1c0,1.38.19,1.74,1.31,1.74a7.18,7.18,0,0,0,2.59-.52l1,3a11.79,11.79,0,0,1-5,1c-2.95,0-3.9-1.69-3.9-4.31Z" transform="translate(0 -0.32)"/><path d="M418.75,81.89a2.7,2.7,0,0,0,2.89,2.31,6.6,6.6,0,0,0,4.4-1.53l1.76,2.46a9.43,9.43,0,0,1-6.57,2.28c-4.64,0-6.43-3.21-6.43-7s2.19-7,7-7c5.28,0,6.09,4,5.88,8.55Zm5.32-2.84c0-1.66-.81-2.38-2.31-2.38a2.75,2.75,0,0,0-3,2.38Z" transform="translate(0 -0.32)"/><path d="M429.56,80.34c0-3.74,1.81-7,5.65-7a4.82,4.82,0,0,1,4.4,2.21V68.67h3.91V87l-2.93.28L440,84.7a5.31,5.31,0,0,1-5,2.66C431.23,87.36,429.56,84.08,429.56,80.34Zm10.05,0c0-2.19-1.19-3.48-3.33-3.48-1.93,0-2.74,1.43-2.74,3.48s.79,3.69,2.74,3.69S439.61,82.55,439.61,80.34Z" transform="translate(0 -0.32)"/><path d="M446.25,87.15V82.72h4.53v4.43Z" transform="translate(0 -0.32)"/></svg>