<svg xmlns="http://www.w3.org/2000/svg" width="19" height="19" viewBox="0 0 19 19">
    <g fill="none" fill-rule="evenodd">
        <path fill="#9B9B9B" d="M20.813 20H4.188C3.531 20 3 19.467 3 18.811V2.188C3 1.53 3.532 1 4.188 1h16.625C21.468 1 22 1.531 22 2.187v16.625c0 .656-.532 1.187-1.188 1.187zm-9.105-1.584h1.584v-1.583h-1.584v1.583zm4.52-7.548c.146-.082.229-.22.229-.385 0-.162-.083-.301-.229-.384l-6.199-3.496c-.147-.083-.315-.084-.463-.003-.148.082-.233.222-.233.387v6.994c0 .165.085.305.233.387.148.08.316.08.463-.003l6.199-3.497zm-7.686 7.548h1.583v-1.583H8.542v1.583zM6.958 2.583H5.375v1.583h1.583V2.583zm0 14.25H5.375v1.583h1.583v-1.583zm3.167-14.25H8.542v1.583h1.583V2.583zm3.167 0h-1.584v1.583h1.584V2.583zm3.166 0h-1.583v1.583h1.583V2.583zm0 14.25h-1.583v1.583h1.583v-1.583zm3.167-14.25h-1.583v1.583h1.583V2.583zm0 14.25h-1.583v1.583h1.583v-1.583z" transform="translate(-3 -1)"/>
    </g>
</svg>
